<svg width="597" height="405" viewBox="0 0 597 405" fill="none" xmlns="http://www.w3.org/2000/svg">
<rect x="0.5" y="0.5" width="471.71" height="354.37" rx="3.5" fill="white" stroke="#E1E5EA"/>
<line x1="25.4052" y1="99.3242" x2="447.304" y2="99.3242" stroke="#E1E5EA" stroke-width="0.5" stroke-linecap="round" stroke-dasharray="2 2"/>
<line x1="25.4052" y1="149.63" x2="447.304" y2="149.63" stroke="#E1E5EA" stroke-width="0.5" stroke-linecap="round" stroke-dasharray="2 2"/>
<line x1="25.4052" y1="199.945" x2="447.304" y2="199.945" stroke="#E1E5EA" stroke-width="0.5" stroke-linecap="round" stroke-dasharray="2 2"/>
<line x1="25.4052" y1="250.252" x2="447.304" y2="250.252" stroke="#E1E5EA" stroke-width="0.5" stroke-linecap="round" stroke-dasharray="2 2"/>
<line x1="25.1552" y1="300.565" x2="447.554" y2="300.565" stroke="#E1E5EA" stroke-width="0.5"/>
<path d="M77 139.213C77 137.004 78.7909 135.213 81 135.213H98.1553C100.364 135.213 102.155 137.004 102.155 139.213V300.819H77V139.213Z" fill="#508EF5"/>
<path d="M144 81.5649C144 79.3558 145.791 77.5649 148 77.5649H165.155C167.364 77.5649 169.155 79.3558 169.155 81.5649V300.818H144V81.5649Z" fill="#EE726F"/>
<path d="M211 223.061C211 220.851 212.791 219.061 215 219.061H232.155C234.364 219.061 236.155 220.851 236.155 223.061V300.815H211V223.061Z" fill="#F8CD5F"/>
<path d="M278 253.454C278 251.245 279.791 249.454 282 249.454H299.155C301.364 249.454 303.155 251.245 303.155 253.454V300.813H278V253.454Z" fill="#F4AF59"/>
<path d="M346 274.417C346 272.208 347.791 270.417 350 270.417H367.155C369.364 270.417 371.155 272.208 371.155 274.417V300.813H346V274.417Z" fill="#EA8D6A"/>
<path d="M30.153 78.2832H34.6033V80.2222H35.6927V78.2832H36.9854V77.2676H35.6927V70.7676H34.3078L30.153 77.3415V78.2832ZM34.6033 77.2676H31.3902V77.1938L34.5294 72.2264H34.6033V77.2676ZM41.7992 80.3514C43.8858 80.3514 45.0861 78.5833 45.0861 75.4949C45.0861 72.4296 43.8674 70.6384 41.7992 70.6384C39.731 70.6384 38.5123 72.4296 38.5123 75.4949C38.5123 78.5833 39.7125 80.3514 41.7992 80.3514ZM41.7992 79.3358C40.4235 79.3358 39.6202 77.9555 39.6202 75.4949C39.6202 73.0389 40.4327 71.6355 41.7992 71.6355C43.1657 71.6355 43.9782 73.0389 43.9782 75.4949C43.9782 77.9555 43.1749 79.3358 41.7992 79.3358ZM49.9242 80.3514C52.0108 80.3514 53.2111 78.5833 53.2111 75.4949C53.2111 72.4296 51.9924 70.6384 49.9242 70.6384C47.856 70.6384 46.6373 72.4296 46.6373 75.4949C46.6373 78.5833 47.8375 80.3514 49.9242 80.3514ZM49.9242 79.3358C48.5485 79.3358 47.7452 77.9555 47.7452 75.4949C47.7452 73.0389 48.5577 71.6355 49.9242 71.6355C51.2907 71.6355 52.1032 73.0389 52.1032 75.4949C52.1032 77.9555 51.2999 79.3358 49.9242 79.3358Z" fill="#4E5A65"/>
<path d="M33.5692 128.565C35.4019 128.565 36.7638 127.415 36.7638 125.869C36.7638 124.669 36.0528 123.796 34.8618 123.597V123.524C35.8174 123.233 36.4129 122.448 36.4129 121.382C36.4129 120.043 35.3557 118.852 33.6061 118.852C31.9719 118.852 30.6146 119.858 30.5592 121.345H31.6672C31.7087 120.403 32.6043 119.849 33.5876 119.849C34.631 119.849 35.305 120.481 35.305 121.437C35.305 122.434 34.5248 123.08 33.403 123.08H32.6459V124.096H33.403C34.8387 124.096 35.6374 124.825 35.6374 125.869C35.6374 126.871 34.7648 127.549 33.5507 127.549C32.4566 127.549 31.5887 126.986 31.5195 126.072H30.3561C30.4253 127.558 31.7364 128.565 33.5692 128.565ZM41.7357 128.565C43.8224 128.565 45.0226 126.797 45.0226 123.708C45.0226 120.643 43.8039 118.852 41.7357 118.852C39.6675 118.852 38.4488 120.643 38.4488 123.708C38.4488 126.797 39.6491 128.565 41.7357 128.565ZM41.7357 127.549C40.36 127.549 39.5567 126.169 39.5567 123.708C39.5567 121.252 40.3692 119.849 41.7357 119.849C43.1022 119.849 43.9147 121.252 43.9147 123.708C43.9147 126.169 43.1114 127.549 41.7357 127.549ZM49.8607 128.565C51.9474 128.565 53.1476 126.797 53.1476 123.708C53.1476 120.643 51.9289 118.852 49.8607 118.852C47.7925 118.852 46.5738 120.643 46.5738 123.708C46.5738 126.797 47.7741 128.565 49.8607 128.565ZM49.8607 127.549C48.485 127.549 47.6817 126.169 47.6817 123.708C47.6817 121.252 48.4942 119.849 49.8607 119.849C51.2272 119.849 52.0397 121.252 52.0397 123.708C52.0397 126.169 51.2364 127.549 49.8607 127.549Z" fill="#4E5A65"/>
<path d="M30.3746 178.75H36.3391V177.734H31.9442V177.661L34.0677 175.389C35.6927 173.649 36.1729 172.836 36.1729 171.788C36.1729 170.33 34.991 169.166 33.3291 169.166C31.6718 169.166 30.4115 170.293 30.4115 171.955H31.501C31.501 170.879 32.1981 170.163 33.2922 170.163C34.317 170.163 35.1018 170.791 35.1018 171.788C35.1018 172.661 34.5894 173.307 33.4953 174.503L30.3746 177.919V178.75ZM41.3295 178.879C43.4161 178.879 44.6164 177.111 44.6164 174.023C44.6164 170.957 43.3976 169.166 41.3295 169.166C39.2613 169.166 38.0425 170.957 38.0425 174.023C38.0425 177.111 39.2428 178.879 41.3295 178.879ZM41.3295 177.864C39.9538 177.864 39.1505 176.483 39.1505 174.023C39.1505 171.567 39.963 170.163 41.3295 170.163C42.6959 170.163 43.5084 171.567 43.5084 174.023C43.5084 176.483 42.7052 177.864 41.3295 177.864ZM49.4545 178.879C51.5411 178.879 52.7414 177.111 52.7414 174.023C52.7414 170.957 51.5226 169.166 49.4545 169.166C47.3863 169.166 46.1675 170.957 46.1675 174.023C46.1675 177.111 47.3678 178.879 49.4545 178.879ZM49.4545 177.864C48.0788 177.864 47.2755 176.483 47.2755 174.023C47.2755 171.567 48.088 170.163 49.4545 170.163C50.8209 170.163 51.6334 171.567 51.6334 174.023C51.6334 176.483 50.8302 177.864 49.4545 177.864Z" fill="#4E5A65"/>
<path d="M33.6984 219.606H32.5535L30.1899 221.176V222.339L32.4981 220.806H32.5535V229.061H33.6984V219.606ZM39.5013 229.19C41.588 229.19 42.7883 227.422 42.7883 224.333C42.7883 221.268 41.5695 219.477 39.5013 219.477C37.4332 219.477 36.2144 221.268 36.2144 224.333C36.2144 227.422 37.4147 229.19 39.5013 229.19ZM39.5013 228.174C38.1256 228.174 37.3224 226.794 37.3224 224.333C37.3224 221.877 38.1349 220.474 39.5013 220.474C40.8678 220.474 41.6803 221.877 41.6803 224.333C41.6803 226.794 40.8771 228.174 39.5013 228.174ZM47.6263 229.19C49.713 229.19 50.9133 227.422 50.9133 224.333C50.9133 221.268 49.6945 219.477 47.6263 219.477C45.5582 219.477 44.3394 221.268 44.3394 224.333C44.3394 227.422 45.5397 229.19 47.6263 229.19ZM47.6263 228.174C46.2506 228.174 45.4474 226.794 45.4474 224.333C45.4474 221.877 46.2599 220.474 47.6263 220.474C48.9928 220.474 49.8053 221.877 49.8053 224.333C49.8053 226.794 49.0021 228.174 47.6263 228.174Z" fill="#4E5A65"/>
<path d="M33.4584 279.5C35.545 279.5 36.7453 277.732 36.7453 274.644C36.7453 271.578 35.5266 269.787 33.4584 269.787C31.3902 269.787 30.1714 271.578 30.1714 274.644C30.1714 277.732 31.3717 279.5 33.4584 279.5ZM33.4584 278.485C32.0827 278.485 31.2794 277.104 31.2794 274.644C31.2794 272.188 32.0919 270.784 33.4584 270.784C34.8249 270.784 35.6374 272.188 35.6374 274.644C35.6374 277.104 34.8341 278.485 33.4584 278.485Z" fill="#4E5A65"/>
<path d="M82.7642 319.129V325.888C82.7642 327.065 82.201 327.698 81.2131 327.698C80.3129 327.698 79.6619 327.171 79.6619 326.368H78.5355C78.5355 327.822 79.6619 328.713 81.2131 328.713C82.8565 328.713 83.9091 327.702 83.9091 325.888V319.129H82.7642ZM88.1424 328.75C89.3796 328.75 90.0259 328.085 90.2475 327.624H90.3029V328.584H91.3924V323.912C91.3924 321.659 89.6751 321.401 88.7702 321.401C87.6992 321.401 86.4805 321.77 85.9265 323.063L86.9606 323.432C87.2006 322.915 87.7685 322.361 88.8072 322.361C89.8089 322.361 90.3029 322.892 90.3029 323.801V323.838C90.3029 324.365 89.7674 324.318 88.4748 324.485C87.1591 324.655 85.7234 324.946 85.7234 326.571C85.7234 327.956 86.7944 328.75 88.1424 328.75ZM88.3086 327.771C87.4407 327.771 86.8129 327.384 86.8129 326.627C86.8129 325.796 87.57 325.537 88.4194 325.426C88.881 325.371 90.1183 325.242 90.3029 325.02V326.017C90.3029 326.904 89.6012 327.771 88.3086 327.771ZM94.4704 324.318C94.4704 323.081 95.2368 322.379 96.2801 322.379C97.2911 322.379 97.9051 323.04 97.9051 324.152V328.584H98.9946V324.078C98.9946 322.269 98.0297 321.401 96.594 321.401C95.523 321.401 94.8582 321.881 94.5258 322.601H94.4335V321.493H93.3809V328.584H94.4704V324.318Z" fill="#4E5A65"/>
<path d="M146.145 328.584H147.29V324.355H151.389V323.34H147.29V320.145H151.814V319.129H146.145V328.584ZM156.08 328.732C157.52 328.732 158.572 328.012 158.905 326.941L157.852 326.645C157.575 327.384 156.934 327.753 156.08 327.753C154.801 327.753 153.919 326.927 153.868 325.408H159.016V324.946C159.016 322.306 157.446 321.401 155.969 321.401C154.048 321.401 152.774 322.915 152.774 325.094C152.774 327.273 154.03 328.732 156.08 328.732ZM153.868 324.466C153.942 323.363 154.722 322.379 155.969 322.379C157.151 322.379 157.908 323.266 157.908 324.466H153.868ZM160.821 328.584H161.873V327.494H162.002C162.243 327.882 162.704 328.732 164.071 328.732C165.843 328.732 167.081 327.31 167.081 325.057C167.081 322.823 165.843 321.401 164.052 321.401C162.667 321.401 162.243 322.25 162.002 322.619H161.91V319.129H160.821V328.584ZM161.892 325.039C161.892 323.45 162.593 322.379 163.923 322.379C165.308 322.379 165.991 323.543 165.991 325.039C165.991 326.553 165.289 327.753 163.923 327.753C162.612 327.753 161.892 326.645 161.892 325.039Z" fill="#4E5A65"/>
<path d="M212.145 319.129V328.584H213.216V321.401H213.308L216.263 328.584H217.297L220.251 321.401H220.344V328.584H221.415V319.129H220.048L216.835 326.977H216.724L213.511 319.129H212.145ZM225.649 328.75C226.886 328.75 227.533 328.085 227.754 327.624H227.81V328.584H228.899V323.912C228.899 321.659 227.182 321.401 226.277 321.401C225.206 321.401 223.987 321.77 223.433 323.063L224.467 323.432C224.707 322.915 225.275 322.361 226.314 322.361C227.316 322.361 227.81 322.892 227.81 323.801V323.838C227.81 324.365 227.274 324.318 225.982 324.485C224.666 324.655 223.23 324.946 223.23 326.571C223.23 327.956 224.301 328.75 225.649 328.75ZM225.815 327.771C224.948 327.771 224.32 327.384 224.32 326.627C224.32 325.796 225.077 325.537 225.926 325.426C226.388 325.371 227.625 325.242 227.81 325.02V326.017C227.81 326.904 227.108 327.771 225.815 327.771ZM230.888 328.584H231.977V324.097C231.977 323.137 232.734 322.435 233.768 322.435C234.059 322.435 234.359 322.49 234.433 322.509V321.401C234.309 321.392 234.022 321.382 233.861 321.382C233.011 321.382 232.273 321.862 232.014 322.564H231.94V321.493H230.888V328.584Z" fill="#4E5A65"/>
<path d="M280.533 328.584L281.484 325.906H285.306L286.257 328.584H287.457L283.986 319.129H282.804L279.332 328.584H280.533ZM281.844 324.891L283.358 320.625H283.432L284.946 324.891H281.844ZM288.782 331.243H289.872V327.494H289.964C290.204 327.882 290.666 328.732 292.032 328.732C293.805 328.732 295.042 327.31 295.042 325.057C295.042 322.823 293.805 321.401 292.014 321.401C290.629 321.401 290.204 322.25 289.964 322.619H289.835V321.493H288.782V331.243ZM289.853 325.039C289.853 323.45 290.555 322.379 291.885 322.379C293.27 322.379 293.953 323.543 293.953 325.039C293.953 326.553 293.251 327.753 291.885 327.753C290.574 327.753 289.853 326.645 289.853 325.039ZM296.704 328.584H297.794V324.097C297.794 323.137 298.551 322.435 299.585 322.435C299.876 322.435 300.176 322.49 300.25 322.509V321.401C300.125 321.392 299.839 321.382 299.677 321.382C298.828 321.382 298.089 321.862 297.831 322.564H297.757V321.493H296.704V328.584Z" fill="#4E5A65"/>
<path d="M346.145 319.129V328.584H347.216V321.401H347.308L350.263 328.584H351.297L354.251 321.401H354.344V328.584H355.415V319.129H354.048L350.835 326.977H350.724L347.511 319.129H346.145ZM359.649 328.75C360.886 328.75 361.533 328.085 361.754 327.624H361.81V328.584H362.899V323.912C362.899 321.659 361.182 321.401 360.277 321.401C359.206 321.401 357.987 321.77 357.433 323.063L358.467 323.432C358.707 322.915 359.275 322.361 360.314 322.361C361.316 322.361 361.81 322.892 361.81 323.801V323.838C361.81 324.365 361.274 324.318 359.982 324.485C358.666 324.655 357.23 324.946 357.23 326.571C357.23 327.956 358.301 328.75 359.649 328.75ZM359.815 327.771C358.948 327.771 358.32 327.384 358.32 326.627C358.32 325.796 359.077 325.537 359.926 325.426C360.388 325.371 361.625 325.242 361.81 325.02V326.017C361.81 326.904 361.108 327.771 359.815 327.771ZM365.336 331.243C366.319 331.243 367.011 330.721 367.422 329.618L370.441 321.512L369.25 321.493L367.293 327.144H367.219L365.262 321.493H364.08L366.702 328.621L366.499 329.175C366.102 330.255 365.613 330.357 364.819 330.154L364.542 331.114C364.652 331.169 364.966 331.243 365.336 331.243Z" fill="#4E5A65"/>
<path d="M25.4336 38.1572H27.1892V33.0834H32.9904V38.1572H34.7517V26.5209H32.9904V31.5777H27.1892V26.5209H25.4336V38.1572ZM40.8483 38.3334C43.3086 38.3334 44.9165 36.5322 44.9165 33.8334C44.9165 31.1175 43.3086 29.3163 40.8483 29.3163C38.3881 29.3163 36.7802 31.1175 36.7802 33.8334C36.7802 36.5322 38.3881 38.3334 40.8483 38.3334ZM40.854 36.9072C39.2461 36.9072 38.4961 35.5038 38.4961 33.8277C38.4961 32.1572 39.2461 30.7368 40.854 30.7368C42.4506 30.7368 43.2006 32.1572 43.2006 33.8277C43.2006 35.5038 42.4506 36.9072 40.854 36.9072ZM52.3412 34.5379C52.3469 36.0209 51.2446 36.7254 50.2901 36.7254C49.239 36.7254 48.5117 35.964 48.5117 34.7765V29.43H46.8128V34.9811C46.8128 37.1459 48.0003 38.2709 49.6765 38.2709C50.989 38.2709 51.881 37.5777 52.2844 36.6459H52.3753V38.1572H54.0458V29.43H52.3412V34.5379ZM56.3284 38.1572H58.0273V32.8277C58.0273 31.6856 58.908 30.8618 60.1125 30.8618C60.4648 30.8618 60.8625 30.9243 60.9989 30.964V29.339C60.8284 29.3163 60.4932 29.2993 60.2773 29.2993C59.2546 29.2993 58.3796 29.8788 58.0614 30.8163H57.9705V29.43H56.3284V38.1572ZM69.0088 31.5606C68.6566 30.2027 67.5941 29.3163 65.7077 29.3163C63.7361 29.3163 62.3384 30.3561 62.3384 31.9015C62.3384 33.1402 63.0884 33.964 64.7248 34.3277L66.202 34.6515C67.0429 34.839 67.435 35.214 67.435 35.7595C67.435 36.4356 66.7134 36.964 65.5998 36.964C64.5827 36.964 63.9293 36.5265 63.7248 35.6686L62.0827 35.9186C62.3668 37.464 63.6509 38.3334 65.6111 38.3334C67.7191 38.3334 69.1793 37.214 69.1793 35.6345C69.1793 34.4015 68.3952 33.6402 66.7929 33.2709L65.4066 32.9527C64.4463 32.7254 64.0316 32.4015 64.0373 31.8106C64.0316 31.1402 64.7588 30.6629 65.7248 30.6629C66.7816 30.6629 67.2702 31.2481 67.4691 31.8334L69.0088 31.5606ZM77.1736 38.1572H78.9009L80.6736 31.8561H80.8043L82.577 38.1572H84.31L86.8725 29.43H85.1168L83.4179 35.8106H83.3327L81.6282 29.43H79.8725L78.1566 35.839H78.0713L76.3611 29.43H74.6054L77.1736 38.1572ZM91.8952 38.3334C94.3554 38.3334 95.9634 36.5322 95.9634 33.8334C95.9634 31.1175 94.3554 29.3163 91.8952 29.3163C89.435 29.3163 87.827 31.1175 87.827 33.8334C87.827 36.5322 89.435 38.3334 91.8952 38.3334ZM91.9009 36.9072C90.2929 36.9072 89.5429 35.5038 89.5429 33.8277C89.5429 32.1572 90.2929 30.7368 91.9009 30.7368C93.4975 30.7368 94.2475 32.1572 94.2475 33.8277C94.2475 35.5038 93.4975 36.9072 91.9009 36.9072ZM97.8597 38.1572H99.5586V32.8277C99.5586 31.6856 100.439 30.8618 101.644 30.8618C101.996 30.8618 102.394 30.9243 102.53 30.964V29.339C102.36 29.3163 102.024 29.2993 101.809 29.2993C100.786 29.2993 99.9108 29.8788 99.5927 30.8163H99.5017V29.43H97.8597V38.1572ZM104 38.1572H105.699V35.0606L106.546 34.214L109.512 38.1572H111.597L107.824 33.1743L111.358 29.43H109.324L105.847 33.1231H105.699V26.5209H104V38.1572ZM116.309 38.3334C118.212 38.3334 119.559 37.3959 119.945 35.9754L118.337 35.6856C118.03 36.5095 117.292 36.93 116.326 36.93C114.871 36.93 113.894 35.9868 113.848 34.305H120.053V33.7027C120.053 30.5493 118.167 29.3163 116.189 29.3163C113.757 29.3163 112.155 31.1686 112.155 33.8504C112.155 36.5606 113.735 38.3334 116.309 38.3334ZM113.854 33.0322C113.922 31.7936 114.82 30.7197 116.201 30.7197C117.519 30.7197 118.382 31.697 118.388 33.0322H113.854ZM125.205 38.3277C126.796 38.3277 127.421 37.3561 127.728 36.7993H127.87V38.1572H129.529V26.5209H127.83V30.8447H127.728C127.421 30.305 126.841 29.3163 125.216 29.3163C123.108 29.3163 121.557 30.9811 121.557 33.8106C121.557 36.6345 123.086 38.3277 125.205 38.3277ZM125.58 36.8788C124.063 36.8788 123.273 35.5436 123.273 33.7936C123.273 32.0606 124.046 30.7595 125.58 30.7595C127.063 30.7595 127.858 31.9697 127.858 33.7936C127.858 35.6288 127.046 36.8788 125.58 36.8788Z" fill="#35414B"/>
<rect x="362.107" y="140.954" width="233.783" height="263.23" rx="3.5" fill="white" stroke="#E1E5EA"/>
<path d="M395.587 191.991H403.494V190.291H397.562V178.9H395.587V191.991ZM408.451 192.209C410.075 192.209 410.989 191.384 411.353 190.649H411.43V191.991H413.296V185.471C413.296 182.614 411.046 182.045 409.487 182.045C407.71 182.045 406.073 182.761 405.434 184.551L407.23 184.96C407.511 184.263 408.227 183.592 409.512 183.592C410.746 183.592 411.379 184.238 411.379 185.35V185.395C411.379 186.091 410.663 186.079 408.899 186.283C407.038 186.5 405.134 186.986 405.134 189.217C405.134 191.147 406.585 192.209 408.451 192.209ZM408.867 190.674C407.786 190.674 407.007 190.189 407.007 189.243C407.007 188.22 407.914 187.856 409.02 187.709C409.64 187.625 411.11 187.459 411.385 187.184V188.45C411.385 189.613 410.458 190.674 408.867 190.674ZM422.061 187.919C422.068 189.588 420.828 190.38 419.754 190.38C418.571 190.38 417.753 189.524 417.753 188.188V182.173H415.842V188.418C415.842 190.853 417.178 192.119 419.064 192.119C420.54 192.119 421.544 191.339 421.997 190.291H422.1V191.991H423.979V182.173H422.061V187.919ZM428.458 186.162C428.458 184.596 429.417 183.701 430.747 183.701C432.044 183.701 432.83 184.551 432.83 185.976V191.991H434.742V185.746C434.742 183.317 433.406 182.045 431.399 182.045C429.922 182.045 428.957 182.729 428.503 183.771H428.382V182.173H426.547V191.991H428.458V186.162ZM441.44 192.189C443.761 192.189 445.263 190.796 445.474 188.885H443.614C443.371 189.946 442.546 190.572 441.453 190.572C439.836 190.572 438.794 189.223 438.794 187.082C438.794 184.979 439.855 183.656 441.453 183.656C442.668 183.656 443.409 184.423 443.614 185.343H445.474C445.269 183.362 443.652 182.045 441.421 182.045C438.654 182.045 436.864 184.129 436.864 187.127C436.864 190.086 438.59 192.189 441.44 192.189ZM449.429 186.162C449.429 184.596 450.42 183.701 451.781 183.701C453.098 183.701 453.884 184.538 453.884 185.976V191.991H455.795V185.746C455.795 183.298 454.453 182.045 452.433 182.045C450.905 182.045 449.985 182.71 449.525 183.771H449.403V178.9H447.518V191.991H449.429V186.162ZM462.577 192.189C464.719 192.189 466.234 191.135 466.668 189.537L464.859 189.211C464.514 190.138 463.683 190.611 462.597 190.611C460.96 190.611 459.861 189.549 459.81 187.657H466.79V186.98C466.79 183.432 464.668 182.045 462.443 182.045C459.707 182.045 457.905 184.129 457.905 187.146C457.905 190.195 459.682 192.189 462.577 192.189ZM459.816 186.226C459.893 184.832 460.903 183.624 462.456 183.624C463.939 183.624 464.91 184.723 464.917 186.226H459.816ZM472.586 192.183C474.375 192.183 475.079 191.09 475.424 190.464H475.584V191.991H477.45V178.9H475.539V183.765H475.424C475.079 183.157 474.427 182.045 472.598 182.045C470.227 182.045 468.482 183.918 468.482 187.101C468.482 190.278 470.201 192.183 472.586 192.183ZM473.008 190.553C471.301 190.553 470.412 189.051 470.412 187.082C470.412 185.133 471.282 183.669 473.008 183.669C474.676 183.669 475.571 185.03 475.571 187.082C475.571 189.147 474.657 190.553 473.008 190.553ZM485.095 191.991H487.07V187.389H489.755C492.791 187.389 494.293 185.554 494.293 183.138C494.293 180.728 492.804 178.9 489.761 178.9H485.095V191.991ZM487.07 185.714V180.594H489.55C491.506 180.594 492.305 181.655 492.305 183.138C492.305 184.621 491.506 185.714 489.576 185.714H487.07ZM496.455 191.991H498.366V185.995C498.366 184.711 499.357 183.784 500.712 183.784C501.109 183.784 501.556 183.854 501.709 183.899V182.071C501.518 182.045 501.141 182.026 500.898 182.026C499.747 182.026 498.763 182.678 498.405 183.733H498.303V182.173H496.455V191.991ZM507.148 192.189C509.915 192.189 511.724 190.163 511.724 187.127C511.724 184.071 509.915 182.045 507.148 182.045C504.38 182.045 502.571 184.071 502.571 187.127C502.571 190.163 504.38 192.189 507.148 192.189ZM507.154 190.585C505.345 190.585 504.501 189.006 504.501 187.12C504.501 185.241 505.345 183.643 507.154 183.643C508.95 183.643 509.794 185.241 509.794 187.12C509.794 189.006 508.95 190.585 507.154 190.585ZM513.858 182.173V192.618C513.858 193.525 513.48 194.024 512.573 194.024H512.266V195.667C512.4 195.673 512.522 195.673 512.656 195.673C514.689 195.673 515.769 194.599 515.769 192.63V182.173H513.858ZM514.804 180.658C515.462 180.658 516.012 180.147 516.012 179.52C516.012 178.894 515.462 178.376 514.804 178.376C514.139 178.376 513.595 178.894 513.595 179.52C513.595 180.147 514.139 180.658 514.804 180.658ZM522.572 192.189C524.713 192.189 526.228 191.135 526.662 189.537L524.853 189.211C524.508 190.138 523.677 190.611 522.591 190.611C520.954 190.611 519.855 189.549 519.804 187.657H526.784V186.98C526.784 183.432 524.662 182.045 522.437 182.045C519.701 182.045 517.899 184.129 517.899 187.146C517.899 190.195 519.676 192.189 522.572 192.189ZM519.81 186.226C519.887 184.832 520.897 183.624 522.45 183.624C523.933 183.624 524.905 184.723 524.911 186.226H519.81ZM533.04 192.189C535.36 192.189 536.863 190.796 537.073 188.885H535.213C534.97 189.946 534.146 190.572 533.053 190.572C531.436 190.572 530.394 189.223 530.394 187.082C530.394 184.979 531.455 183.656 533.053 183.656C534.267 183.656 535.009 184.423 535.213 185.343H537.073C536.869 183.362 535.252 182.045 533.021 182.045C530.253 182.045 528.463 184.129 528.463 187.127C528.463 190.086 530.189 192.189 533.04 192.189ZM543.7 182.173H541.687V179.821H539.776V182.173H538.337V183.707H539.776V189.505C539.769 191.288 541.131 192.151 542.639 192.119C543.247 192.113 543.656 191.998 543.879 191.915L543.534 190.336C543.406 190.361 543.17 190.419 542.863 190.419C542.243 190.419 541.687 190.214 541.687 189.108V183.707H543.7V182.173ZM553.014 184.57C552.617 183.042 551.422 182.045 549.3 182.045C547.082 182.045 545.509 183.215 545.509 184.954C545.509 186.347 546.353 187.274 548.194 187.683L549.856 188.047C550.802 188.258 551.243 188.68 551.243 189.294C551.243 190.054 550.431 190.649 549.178 190.649C548.034 190.649 547.299 190.157 547.069 189.191L545.222 189.473C545.541 191.211 546.986 192.189 549.191 192.189C551.563 192.189 553.205 190.93 553.205 189.153C553.205 187.766 552.323 186.91 550.521 186.494L548.961 186.136C547.881 185.88 547.414 185.516 547.421 184.851C547.414 184.097 548.232 183.56 549.319 183.56C550.508 183.56 551.058 184.218 551.281 184.877L553.014 184.57Z" fill="#35414B"/>
<path d="M397.932 365.182V369.341C397.932 370.065 397.585 370.455 396.977 370.455C396.423 370.455 396.023 370.131 396.023 369.636H395.33C395.33 370.531 396.023 371.08 396.977 371.08C397.989 371.08 398.636 370.457 398.636 369.341V365.182H397.932ZM401.241 371.102C402.003 371.102 402.401 370.693 402.537 370.409H402.571V371H403.241V368.125C403.241 366.739 402.185 366.58 401.628 366.58C400.969 366.58 400.219 366.807 399.878 367.602L400.514 367.83C400.662 367.511 401.011 367.17 401.651 367.17C402.267 367.17 402.571 367.497 402.571 368.057V368.08C402.571 368.403 402.241 368.375 401.446 368.477C400.636 368.582 399.753 368.761 399.753 369.761C399.753 370.614 400.412 371.102 401.241 371.102ZM401.344 370.5C400.81 370.5 400.423 370.261 400.423 369.795C400.423 369.284 400.889 369.125 401.412 369.057C401.696 369.023 402.457 368.943 402.571 368.807V369.42C402.571 369.966 402.139 370.5 401.344 370.5ZM405.136 368.375C405.136 367.614 405.607 367.182 406.249 367.182C406.871 367.182 407.249 367.588 407.249 368.273V371H407.92V368.227C407.92 367.114 407.326 366.58 406.442 366.58C405.783 366.58 405.374 366.875 405.17 367.318H405.113V366.636H404.465V371H405.136V368.375Z" fill="#4E5A65"/>
<path d="M397.614 255.864H400.373V257H401.211V255.864H401.981V255.119H401.211V251.182H400.129L397.614 255.153V255.864ZM400.379 255.119H398.535V255.074L400.333 252.227H400.379V255.119ZM405.002 257.08C406.218 257.091 407.025 256.216 407.022 255.099C407.025 253.986 406.215 253.188 405.207 253.188C404.593 253.188 404.062 253.483 403.763 253.974H403.721C403.724 252.653 404.224 251.869 405.076 251.869C405.636 251.869 405.988 252.21 406.107 252.693H406.974C406.84 251.773 406.116 251.102 405.076 251.102C403.724 251.102 402.88 252.264 402.88 254.287C402.877 256.429 403.968 257.071 405.002 257.08ZM404.999 256.341C404.323 256.341 403.829 255.773 403.829 255.119C403.832 254.469 404.349 253.901 405.019 253.901C405.684 253.901 406.173 254.438 406.17 255.111C406.173 255.798 405.664 256.341 404.999 256.341Z" fill="#4E5A65"/>
<path d="M394 271C394 268.791 395.791 267 398 267H407C409.209 267 411 268.791 411 271V356H394V271Z" fill="#F3F5F9"/>
<path d="M435.614 242.864H438.373V244H439.211V242.864H439.981V242.119H439.211V238.182H438.129L435.614 242.153V242.864ZM438.379 242.119H436.535V242.074L438.333 239.227H438.379V242.119ZM443.002 244.08C444.218 244.091 445.025 243.216 445.022 242.099C445.025 240.986 444.215 240.188 443.207 240.188C442.593 240.188 442.062 240.483 441.763 240.974H441.721C441.724 239.653 442.224 238.869 443.076 238.869C443.636 238.869 443.988 239.21 444.107 239.693H444.974C444.84 238.773 444.116 238.102 443.076 238.102C441.724 238.102 440.88 239.264 440.88 241.287C440.877 243.429 441.968 244.071 443.002 244.08ZM442.999 243.341C442.323 243.341 441.829 242.773 441.829 242.119C441.832 241.469 442.349 240.901 443.019 240.901C443.684 240.901 444.173 241.438 444.17 242.111C444.173 242.798 443.664 243.341 442.999 243.341Z" fill="#5FCB79"/>
<path d="M433.705 371H434.409V368.398H436.932V367.773H434.409V365.807H437.193V365.182H433.705V371ZM439.818 371.091C440.705 371.091 441.352 370.648 441.557 369.989L440.909 369.807C440.739 370.261 440.344 370.489 439.818 370.489C439.031 370.489 438.489 369.98 438.457 369.045H441.625V368.761C441.625 367.136 440.659 366.58 439.75 366.58C438.568 366.58 437.784 367.511 437.784 368.852C437.784 370.193 438.557 371.091 439.818 371.091ZM438.457 368.466C438.503 367.787 438.983 367.182 439.75 367.182C440.477 367.182 440.943 367.727 440.943 368.466H438.457ZM442.736 371H443.384V370.33H443.463C443.611 370.568 443.895 371.091 444.736 371.091C445.827 371.091 446.588 370.216 446.588 368.83C446.588 367.455 445.827 366.58 444.724 366.58C443.872 366.58 443.611 367.102 443.463 367.33H443.406V365.182H442.736V371ZM443.395 368.818C443.395 367.841 443.827 367.182 444.645 367.182C445.497 367.182 445.918 367.898 445.918 368.818C445.918 369.75 445.486 370.489 444.645 370.489C443.838 370.489 443.395 369.807 443.395 368.818Z" fill="#5FCB79"/>
<path d="M432 258C432 255.791 433.791 254 436 254H445C447.209 254 449 255.791 449 258V356H432V258Z" fill="#5FCB79"/>
<path d="M473.901 282.056H477.73V281.303H475.111V281.261L476.267 280.05C477.332 278.974 477.636 278.46 477.636 277.809C477.636 276.874 476.875 276.158 475.778 276.158C474.69 276.158 473.895 276.863 473.895 277.925H474.733C474.73 277.3 475.133 276.891 475.761 276.891C476.352 276.891 476.801 277.255 476.801 277.835C476.801 278.349 476.494 278.718 475.869 279.38L473.901 281.42V282.056ZM480.741 276.158C479.52 276.147 478.722 277.025 478.722 278.127C478.724 279.238 479.528 280.039 480.537 280.039C481.153 280.039 481.682 279.738 481.98 279.249H482.026C482.023 280.587 481.52 281.369 480.668 281.369C480.111 281.369 479.753 281.028 479.639 280.531H478.773C478.901 281.471 479.628 282.136 480.668 282.136C482.02 282.136 482.866 280.974 482.866 278.937C482.864 276.812 481.778 276.167 480.741 276.158ZM480.744 276.897C481.418 276.897 481.915 277.468 481.915 278.107C481.918 278.755 481.392 279.323 480.727 279.323C480.06 279.323 479.577 278.789 479.574 278.116C479.574 277.44 480.077 276.897 480.744 276.897Z" fill="#4E5A65"/>
<path d="M471.705 365.182V371H472.364V366.58H472.42L474.239 371H474.875L476.693 366.58H476.75V371H477.409V365.182H476.568L474.591 370.011H474.523L472.545 365.182H471.705ZM480.015 371.102C480.776 371.102 481.174 370.693 481.31 370.409H481.344V371H482.015V368.125C482.015 366.739 480.958 366.58 480.401 366.58C479.742 366.58 478.992 366.807 478.651 367.602L479.288 367.83C479.435 367.511 479.785 367.17 480.424 367.17C481.04 367.17 481.344 367.497 481.344 368.057V368.08C481.344 368.403 481.015 368.375 480.219 368.477C479.41 368.582 478.526 368.761 478.526 369.761C478.526 370.614 479.185 371.102 480.015 371.102ZM480.117 370.5C479.583 370.5 479.197 370.261 479.197 369.795C479.197 369.284 479.663 369.125 480.185 369.057C480.469 369.023 481.231 368.943 481.344 368.807V369.42C481.344 369.966 480.913 370.5 480.117 370.5ZM483.239 371H483.909V368.239C483.909 367.648 484.375 367.216 485.011 367.216C485.19 367.216 485.375 367.25 485.42 367.261V366.58C485.344 366.574 485.168 366.568 485.068 366.568C484.545 366.568 484.091 366.864 483.932 367.295H483.886V366.636H483.239V371Z" fill="#4E5A65"/>
<path d="M470 296C470 293.791 471.791 292 474 292H483C485.209 292 487 293.791 487 296V356H470V296Z" fill="#F3F5F9"/>
<path d="M513.864 267.562C515.051 267.562 515.923 266.852 515.92 265.886C515.923 265.15 515.477 264.622 514.704 264.502V264.457C515.312 264.301 515.707 263.823 515.704 263.17C515.707 262.315 515.006 261.585 513.886 261.585C512.818 261.585 511.96 262.23 511.932 263.176H512.781C512.801 262.642 513.304 262.318 513.875 262.318C514.469 262.318 514.858 262.678 514.855 263.215C514.858 263.778 514.406 264.147 513.761 264.147H513.27V264.863H513.761C514.568 264.863 515.034 265.272 515.034 265.857C515.034 266.423 514.543 266.806 513.858 266.806C513.227 266.806 512.736 266.482 512.702 265.965H511.81C511.847 266.914 512.687 267.562 513.864 267.562ZM518.915 267.562C520.085 267.562 520.92 266.735 520.918 265.602C520.92 264.477 520.136 263.659 519.077 263.659C518.645 263.659 518.244 263.823 518.017 264.045H517.983L518.168 262.417H520.636V261.664H517.437L517.111 264.596L517.915 264.715C518.133 264.519 518.526 264.386 518.878 264.386C519.568 264.392 520.068 264.909 520.068 265.619C520.068 266.318 519.582 266.823 518.915 266.823C518.352 266.823 517.906 266.465 517.861 265.965H517.008C517.043 266.892 517.847 267.562 518.915 267.562Z" fill="#4E5A65"/>
<path d="M508.943 371L509.528 369.352H511.881L512.466 371H513.205L511.068 365.182H510.341L508.205 371H508.943ZM509.75 368.727L510.682 366.102H510.727L511.659 368.727H509.75ZM514.02 372.636H514.69V370.33H514.747C514.895 370.568 515.179 371.091 516.02 371.091C517.111 371.091 517.872 370.216 517.872 368.83C517.872 367.455 517.111 366.58 516.009 366.58C515.156 366.58 514.895 367.102 514.747 367.33H514.668V366.636H514.02V372.636ZM514.679 368.818C514.679 367.841 515.111 367.182 515.929 367.182C516.781 367.182 517.202 367.898 517.202 368.818C517.202 369.75 516.77 370.489 515.929 370.489C515.122 370.489 514.679 369.807 514.679 368.818ZM518.895 371H519.565V368.239C519.565 367.648 520.031 367.216 520.668 367.216C520.847 367.216 521.031 367.25 521.077 367.261V366.58C521 366.574 520.824 366.568 520.724 366.568C520.202 366.568 519.747 366.864 519.588 367.295H519.543V366.636H518.895V371Z" fill="#4E5A65"/>
<path d="M508 281C508 278.791 509.791 277 512 277H521C523.209 277 525 278.791 525 281V356H508V281Z" fill="#F3F5F9"/>
<path d="M549.901 289.491H553.73V288.738H551.111V288.696L552.267 287.486C553.332 286.409 553.636 285.895 553.636 285.244C553.636 284.309 552.875 283.593 551.778 283.593C550.69 283.593 549.895 284.298 549.895 285.361H550.733C550.73 284.736 551.133 284.326 551.761 284.326C552.352 284.326 552.801 284.69 552.801 285.27C552.801 285.784 552.494 286.153 551.869 286.815L549.901 288.855V289.491ZM556.838 289.571C558.054 289.582 558.861 288.707 558.858 287.591C558.861 286.477 558.051 285.679 557.043 285.679C556.429 285.679 555.898 285.974 555.599 286.466H555.557C555.56 285.145 556.06 284.361 556.912 284.361C557.472 284.361 557.824 284.701 557.943 285.184H558.81C558.676 284.264 557.952 283.593 556.912 283.593C555.56 283.593 554.716 284.755 554.716 286.778C554.713 288.92 555.804 289.562 556.838 289.571ZM556.835 288.832C556.159 288.832 555.665 288.264 555.665 287.611C555.668 286.96 556.185 286.392 556.855 286.392C557.52 286.392 558.008 286.929 558.006 287.602C558.008 288.29 557.5 288.832 556.835 288.832Z" fill="#4E5A65"/>
<path d="M547.705 365.182V371H548.364V366.58H548.42L550.239 371H550.875L552.693 366.58H552.75V371H553.409V365.182H552.568L550.591 370.011H550.523L548.545 365.182H547.705ZM556.015 371.102C556.776 371.102 557.174 370.693 557.31 370.409H557.344V371H558.015V368.125C558.015 366.739 556.958 366.58 556.401 366.58C555.742 366.58 554.992 366.807 554.651 367.602L555.288 367.83C555.435 367.511 555.785 367.17 556.424 367.17C557.04 367.17 557.344 367.497 557.344 368.057V368.08C557.344 368.403 557.015 368.375 556.219 368.477C555.41 368.582 554.526 368.761 554.526 369.761C554.526 370.614 555.185 371.102 556.015 371.102ZM556.117 370.5C555.583 370.5 555.197 370.261 555.197 369.795C555.197 369.284 555.663 369.125 556.185 369.057C556.469 369.023 557.231 368.943 557.344 368.807V369.42C557.344 369.966 556.913 370.5 556.117 370.5ZM559.514 372.636C560.119 372.636 560.545 372.315 560.798 371.636L562.656 366.648L561.923 366.636L560.719 370.114H560.673L559.469 366.636H558.741L560.355 371.023L560.23 371.364C559.986 372.028 559.685 372.091 559.196 371.966L559.026 372.557C559.094 372.591 559.287 372.636 559.514 372.636Z" fill="#4E5A65"/>
<path d="M546 303C546 300.791 547.791 299 550 299H559C561.209 299 563 300.791 563 303V356H546V303Z" fill="#F3F5F9"/>
</svg>
